<svg width="375" height="375" viewBox="0 0 375 375" fill="none" xmlns="http://www.w3.org/2000/svg">
<circle cx="187.5" cy="187.5" r="187.5" fill="#FBBF24"/>
<g clip-path="url(#clip0_0_1)">
<path d="M107.995 185.343C108.588 183.146 109.163 180.801 108.443 178.646C108.065 177.501 107.345 176.51 106.607 175.556C105.448 174.076 103.696 170.902 101.416 171.638C99.4113 172.289 99.4207 175.249 99.416 177.394C97.0004 176.277 94.3511 175.719 91.5383 175.654C89.1694 175.598 87.0995 177.464 86.1977 179.647C85.3006 181.829 85.3427 184.268 85.4828 186.623C86.0716 196.847 88.3611 207.383 94.7156 215.429C102.065 209.584 108.382 201.514 111.835 192.803C110.723 190.243 109.499 187.688 107.995 185.343ZM93.7904 206.177C93.5007 205.638 93.2157 205.098 92.94 204.549L92.5289 203.725C92.3887 203.45 92.2625 203.171 92.1597 202.883C91.9308 202.31 91.7065 201.738 91.4916 201.161C91.2579 200.588 91.0991 199.993 90.9309 199.397C90.7673 198.801 90.5991 198.21 90.459 197.605L90.1319 195.776C89.7721 193.324 89.7114 190.806 90.0945 188.344C90.2066 187.73 90.2861 187.116 90.4636 186.516L90.7066 185.613C90.8001 185.32 90.9029 185.026 91.0103 184.733C91.4495 183.574 91.9635 182.43 92.7344 181.466C92.4307 182.648 92.2345 183.821 92.1177 184.994C92.0943 185.292 92.0476 185.58 92.0289 185.873L91.9728 186.748C91.9168 187.33 91.9401 187.916 91.9168 188.498C91.8934 190.825 92.1036 193.133 92.4401 195.427L92.7204 197.149C92.8232 197.726 92.9681 198.289 93.0802 198.862C93.2811 200.016 93.6409 201.137 93.8979 202.292C94.0147 202.869 94.2249 203.422 94.3745 203.999C94.538 204.567 94.6922 205.144 94.8464 205.726C95.1921 206.871 95.5706 208.011 95.8509 209.216C95.1081 208.244 94.4445 207.215 93.7904 206.177ZM253.05 209.765C252.531 209.142 251.905 208.579 251.134 208.313C250.471 208.081 249.747 208.09 249.041 208.104C245.313 208.169 243.06 207.741 239.477 208.718C235.472 209.807 236.781 211.511 239.85 211.287C241.621 211.157 243.215 210.961 244.99 210.929C248.784 210.859 250.396 211.483 251.359 214.149C251.789 215.341 251.494 216.662 251.162 217.886C249.312 224.667 246.392 231.098 243.486 237.501C242.528 239.605 241.528 241.774 239.813 243.333C238.005 244.975 235.599 245.766 233.463 246.958C232.875 247.284 232.276 247.674 231.977 248.275C231.678 248.875 231.805 249.736 232.412 250.029C232.786 250.215 233.225 250.146 233.632 250.048C237.383 249.14 240.378 246.274 242.518 243.072C244.654 239.866 246.102 236.264 247.995 232.908C250.074 229.218 252.7 225.797 254.176 221.832C255.653 217.863 255.76 213.028 253.05 209.765ZM238.225 223.973C237.07 222.652 232.963 219.627 228.814 222.335C226.609 223.773 226.899 225.658 226.361 228.227C226.081 229.572 226.006 230.982 225.469 232.247C224.922 233.532 223.936 234.574 223.189 235.756C222.446 236.938 221.941 238.432 222.478 239.721C222.623 240.056 222.838 240.368 223.151 240.554C223.88 240.992 224.847 240.578 225.45 239.973C226.053 239.372 226.464 238.59 227.132 238.06C228.314 237.125 229.968 237.19 231.468 237.004C234.459 236.641 237.351 234.993 238.846 232.387C240.336 229.781 240.206 226.235 238.225 223.973ZM225.211 261.473C226.84 261.344 229.298 260.818 231.284 258.983C231.562 258.726 231.265 258.272 230.913 258.416L225.056 260.812C224.693 260.96 224.819 261.504 225.211 261.473ZM125.568 228.659C125.385 228.362 125.152 228.101 124.885 227.887C124.619 227.678 124.32 227.51 123.998 227.394C123.716 227.296 123.416 227.26 123.083 227.242C122.92 227.233 123.002 227.38 123.036 227.439C123.185 227.699 123.351 227.909 123.526 228.106C123.736 228.343 123.96 228.552 124.199 228.739C124.432 228.929 124.68 229.102 124.946 229.255C125.153 229.382 125.376 229.475 125.623 229.612C125.901 229.766 125.858 229.528 125.847 229.44C125.811 229.155 125.703 228.894 125.568 228.659ZM125.712 232.443C125.432 232.057 125.086 231.731 124.713 231.447C124.339 231.168 123.928 230.94 123.498 230.763C123.231 230.66 122.763 230.569 122.441 230.515C122.24 230.48 122.18 230.559 122.302 230.699C122.511 230.939 122.833 231.3 123.04 231.494C123.372 231.791 123.708 232.061 124.054 232.322C124.395 232.583 124.75 232.825 125.114 233.062C125.41 233.254 125.711 233.431 126.043 233.636C126.253 233.765 126.255 233.574 126.23 233.478C126.13 233.099 125.936 232.755 125.712 232.443ZM124.269 235.794C123.773 235.142 123.18 234.584 122.563 234.062C121.942 233.546 121.274 233.094 120.573 232.699C119.872 232.308 118.028 231.368 118.339 231.745C118.9 232.345 119.484 232.88 120.078 233.392C120.666 233.918 121.269 234.407 121.862 234.905L123.652 236.38C124.241 236.887 124.82 237.39 125.427 237.948C126.022 238.324 124.769 236.436 124.269 235.794ZM119.474 236.315C118.939 235.677 118.45 235.592 118.222 235.579C118.122 235.574 117.929 235.623 118.009 235.848C118.087 236.067 118.609 237.462 119.972 237.861C120.331 237.966 120.082 237.04 119.474 236.315ZM112.877 232.224C111.279 231.093 104.317 227.626 103.177 230.544C101.706 234.314 110.448 235.137 112.307 234.854C112.943 234.756 113.686 234.504 113.854 233.881C114.027 233.22 113.438 232.62 112.877 232.224ZM299.774 157.867C298.368 140.155 285.771 137.545 283.197 124.286C281.122 113.625 270.002 104.136 260.904 98.1419C254.914 94.2002 248.723 90.4866 242.033 87.8991C231.632 83.8643 225.525 88.4483 211.629 73.0817C213.096 78.9221 213.148 87.0428 213.255 87.1731C207.307 83.0407 205.004 73.817 191.393 59.9769C196.243 73.9241 192.701 70.9411 192.855 71.6251C192.855 71.6251 190.393 61.3823 173.605 44.8059C173.815 45.1502 180.562 55.8491 181.338 70.0475C175.978 58.7018 174.24 55.5559 168.236 48.3008C163.821 42.963 166.208 34.2513 166.278 34C165.751 34.3025 140.856 43.7123 119.792 83.1384C114.129 93.7441 107.91 119.014 120.395 127.921C120.956 128.321 121.792 128.121 122.255 127.6C122.713 127.083 122.932 126.199 122.988 125.692C123.185 123.877 123.096 120.629 123.208 118.395C123.329 115.114 123.633 111.838 123.979 108.58C124.016 108.231 124.287 107.919 124.638 107.896C125.091 107.859 125.451 108.231 125.418 108.664V108.678C125.18 111.931 124.984 115.184 124.97 118.446C124.937 120.475 124.708 123.612 126.652 130.248C127.072 131.69 128.292 133.161 129.801 133.073C131.646 132.961 132.357 130.653 132.492 128.81C133.001 121.89 132.188 114.928 132.973 108.026C133.389 104.387 133.838 100.753 134.445 97.1413C134.754 95.3171 135.978 89.123 136.281 88.2621C136.478 87.7176 136.763 87.82 136.548 89.0113C136.281 90.4633 135.945 93.6976 135.884 94.2142C135.557 96.9273 135.342 99.6543 135.221 102.381C135.113 104.806 135.076 107.231 135.113 109.655C135.137 110.958 135.193 112.261 135.235 113.564C135.319 116.212 135.361 118.865 135.688 121.494C135.814 122.518 136.038 123.528 136.244 124.542C136.982 128.181 138.482 132.314 142.038 133.431C142.659 133.626 143.341 133.71 143.958 133.505C145.173 133.082 145.743 131.704 146 130.448C146.855 126.246 145.893 121.848 145.701 117.566C145.58 116.692 145.089 108.292 144.935 104.946C144.911 104.471 145.056 103.861 145.421 103.815C145.911 103.754 146.019 104.778 146.019 104.778C146.262 108.068 147.22 117.073 150.084 125.594C150.715 127.479 152.883 129.033 154.78 128.461C156.041 128.079 156.812 126.79 157.106 125.515C157.349 124.473 157.004 120.531 156.761 119.628C156.63 119.116 156.934 118.595 157.443 118.465C157.943 118.33 158.452 118.618 158.602 119.107V119.121C159.022 120.503 162.891 131.099 166.367 133.054C166.797 133.291 167.292 133.487 167.764 133.361C168.278 133.217 168.61 132.723 168.82 132.235C169.502 130.657 169.33 128.852 169.091 127.144C168.587 123.542 165.461 110.53 164.807 107.547C163.839 103.447 163.185 99.2867 162.611 95.1263C162.587 94.9681 162.699 94.8192 162.863 94.7912C163.022 94.7726 163.171 94.8797 163.199 95.0425C163.952 99.1564 164.774 103.256 165.909 107.272C166.975 111.312 171.47 128.061 177.142 132.37C178.422 133.338 180.66 133.035 181.226 132.491C181.674 132.067 181.898 130.825 181.819 130.215C181.165 125.143 177.067 114.947 177.833 114.639C179.116 114.124 182.959 123.472 184.571 126.702C187.155 131.877 190.458 134.306 195.668 136.861C196.813 137.419 199.051 138.783 200.967 139.094C205.485 139.834 211.863 139.555 214.839 139.685C217.82 139.802 220.792 140.011 223.759 140.239C223.866 140.253 223.946 140.342 223.936 140.453C223.932 140.546 223.847 140.63 223.74 140.63C220.768 140.598 217.797 140.584 214.83 140.663C212.022 140.719 203.686 141.23 200.625 142.208C199.191 142.668 197.635 143.646 197.574 145.149C197.518 146.582 198.929 147.68 200.331 148.03C200.761 148.137 201.205 148.192 201.649 148.234C202.896 148.192 220.287 148.397 223.254 148.565C223.628 148.583 224.011 148.644 224.058 148.858C224.095 149.044 223.819 149.202 223.371 149.198C223.371 149.198 200.766 149.975 198.275 150.221C195.967 150.445 192.911 152.139 193.991 154.926C194.93 157.365 198.018 156.862 200.116 156.932C202.854 157.02 205.592 157.067 208.33 157.132C213.699 157.253 219.058 157.337 224.413 157.732C227.87 157.988 231.309 158.342 234.744 158.821C235.692 158.947 235.884 159.259 234.281 159.124C227.651 158.565 221.016 158.421 214.362 158.598C209.653 158.728 204.947 159.008 200.256 159.454C199.817 159.519 199.098 159.627 198.658 159.696C196.285 160.213 193.977 160.962 191.902 162.195C191.257 162.582 190.622 163.028 190.243 163.675C189.86 164.317 189.795 165.197 190.262 165.779C190.58 166.174 191.08 166.374 191.575 166.495C192.977 166.84 194.444 166.691 195.892 166.691C203.807 165.997 219.829 166.495 225.212 167.031C225.945 167.105 226.174 167.3 226.165 167.529C226.156 167.77 225.88 167.91 225.586 167.91H225.567C220.189 167.729 214.806 167.747 209.438 167.999C204.069 168.236 197.411 168.492 193.537 169.576C192.636 169.832 190.991 170.479 190.141 171.2C189.15 172.043 188.234 173.308 188.65 174.542C188.715 174.732 188.804 174.919 188.926 175.105C189.926 176.636 191.883 176.389 193.453 176.212C195.719 175.961 198.009 175.826 200.289 175.696C202.709 175.556 205.139 175.472 207.564 175.496C209.396 175.514 211.209 175.645 213.031 175.766C213.241 175.779 213.4 175.97 213.377 176.18C213.358 176.384 213.176 176.519 212.97 176.524C205.994 176.813 195.869 176.812 191.956 178.924C191.072 179.4 189.876 180.71 192.934 182.456C195.833 184.112 199.621 183.979 202.962 184.142C203.77 184.179 220.17 184.179 224.922 184.473C230.109 184.798 234.066 184.98 236.206 185.282C236.285 185.292 236.257 185.394 236.197 185.389C230.936 185.254 230.284 185.227 216.702 185.786C211.968 185.981 197.373 187.118 199.506 190.442C199.711 190.761 199.992 191.024 200.333 191.186C201.59 191.787 209.202 192.448 210.553 192.704C211.113 192.807 211.123 193.03 210.571 193.174C208.913 193.593 196.765 195.379 196.859 195.951C199.961 196.04 205.555 196.209 208.657 196.316C215.26 196.535 221.862 196.805 228.464 197.242C221.852 197.494 215.246 197.577 208.639 197.596C193.589 197.754 178.53 197.41 163.489 196.833C158.789 196.656 154.186 196.796 149.191 196.111C155.803 195.865 162.41 195.781 169.017 195.753C170.675 195.744 172.329 195.744 173.988 195.748C173.913 195.623 173.829 195.516 173.754 195.418C170.628 191.597 166.087 189.233 161.583 187.2C149.247 181.615 136.431 178.223 123.049 176.119C121.605 179.037 120.638 182.197 120.199 185.422C118.349 187.2 117.097 189.852 116.797 193.566C116.456 197.745 117.54 202.506 118.933 206.461C120.549 211.059 126.913 223.861 136.632 228.045C138.01 228.641 139.552 228.906 141.043 228.715C142.753 228.501 144.318 227.598 145.603 226.449C148.159 224.192 149.752 221.032 150.813 217.798C152.668 212.125 152.943 205.856 151.406 200.142L199.359 200.863C199.06 202.873 198.443 204.856 197.78 206.787C195.771 212.679 193.009 222.284 190.44 227.957C186.22 237.264 169.601 250.271 162.667 257.796C155.812 265.237 151.859 273.223 150.42 276.476C150.402 276.509 150.35 276.49 150.364 276.453C151.92 271.343 154.588 264.525 157.149 258.75C154.555 259.9 152.032 260.835 150.439 261.394C149.78 261.626 149.836 261.561 150.271 261.356C153.018 260.063 156.069 257.712 158.639 255.479C161.218 253.659 165.232 249.457 167.741 246.599C167.956 246.362 167.619 246.032 167.376 246.241C162.975 250.141 155.99 255.469 142.79 257.778C135.609 259.039 128.38 254.734 123.586 249.266C120.405 245.636 117.54 240.982 113.218 239.344C110.298 239.856 104.724 239.512 103.28 238.59C102.668 238.199 102.182 237.618 101.911 237.069C101.369 235.98 100.14 235.389 99.0002 235.803C98.9768 235.812 98.9488 235.821 98.9254 235.831C97.0377 236.552 95.1688 237.394 93.5942 238.651C92.0196 239.912 90.7534 241.653 90.3982 243.635C90.2207 244.631 90.2768 245.664 90.4917 246.655C90.9029 248.549 91.8747 250.271 92.8606 251.942C93.8418 253.603 94.9632 255.344 96.7434 256.102C98.7712 256.959 101.093 256.316 103.201 255.669C108.294 254.097 114.073 257.443 118.657 260.16C122.292 262.315 129.525 265.503 129.539 265.507C130.875 266.001 132.875 266.354 134.263 266.661C134.394 266.689 135.282 266.801 135.207 267.401C135.137 267.978 134.702 268.039 134.455 268.072C133.478 268.188 132.492 267.946 131.567 267.616C130.642 267.271 129.759 266.838 128.815 266.55C128.343 266.406 127.852 266.299 127.352 266.266C126.965 266.238 126.376 266.201 126.021 266.401C124.614 267.197 124.47 270.952 124.227 272.344C123.465 276.727 122.736 285.728 122.778 290.074C122.778 290.367 122.858 291.247 122.423 291.256C121.965 291.27 121.858 290.423 121.839 290.144C121.512 285.756 121.465 282.275 121.722 277.872C121.848 275.676 122.035 273.479 122.269 271.287C122.409 270.017 122.619 268.756 122.736 267.481C122.816 266.596 122.759 265.936 122.175 265.549C121.853 265.34 121.161 265.321 120.802 265.456C120.007 265.749 119.442 266.173 118.4 269.249C117.746 271.19 117.101 273.144 116.55 275.136C116.442 275.527 116.083 275.811 115.681 275.787C115.176 275.741 114.849 275.28 114.933 274.819C115.335 272.632 116.877 266.108 116.783 265.191C116.76 264.972 116.685 264.823 116.522 264.688C116.232 264.446 115.681 264.386 115.34 264.535C113.877 265.172 112.004 270.459 111.064 273.209C109.742 277.049 108.448 280.227 107.565 284.201C107.457 284.695 107.373 285.793 106.883 285.681C106.401 285.574 106.682 284.332 106.766 283.857C107.509 279.79 108.41 276.579 109.611 272.609C109.999 271.329 110.41 270.049 110.845 268.784C110.929 268.355 111.06 267.918 111.102 267.536C111.172 266.908 110.765 266.057 109.737 265.889C109.256 265.815 108.481 266.24 108.173 266.612C107.99 266.827 107.492 267.662 107.144 268.234C106.585 269.154 106.34 269.619 105.841 270.585C103.869 274.266 102.238 278.156 100.911 282.149C99.5936 286.147 98.5329 290.246 97.8181 294.416C97.2667 297.637 96.8883 300.894 96.6686 304.166C96.664 304.222 96.6593 304.301 96.5939 304.301C96.5285 304.301 96.5144 304.217 96.5144 304.17C96.5565 300.885 96.7621 297.595 97.1406 294.318C97.6358 290.084 98.4769 285.886 99.5983 281.753C100.729 277.626 102.173 273.572 104 269.663C104.28 269.044 106.046 265.293 106.462 263.958C106.584 263.567 106.612 263.036 106.242 262.864C105.995 262.748 105.705 262.878 105.472 263.013C105.046 263.26 101.911 266.615 101.911 266.615C99.7244 269.323 97.7947 272.269 96.1079 275.336C94.4259 278.412 92.9681 281.623 91.7719 284.937C90.5992 288.255 89.6787 291.661 88.9825 295.133C88.9311 295.384 88.6881 295.542 88.4405 295.496C88.1975 295.445 88.034 295.212 88.0714 294.975C88.6274 291.442 89.417 287.934 90.4683 284.499C91.5383 281.074 92.8887 277.728 94.482 274.494C96.0799 271.264 97.9349 268.151 100.094 265.224C100.575 264.591 101.065 263.953 101.57 263.329C101.878 262.762 102.061 262.152 101.841 261.575C101.57 260.886 100.813 260.682 100.215 260.789C99.5983 260.905 74.811 281.335 76.0445 303.928C76.0445 303.928 77.7593 302.002 79.7358 299.586C78.1191 307.814 78.292 316.307 81.3057 324.721C82.5018 328.076 86.0949 332.074 89.3096 333.628C90.5478 334.224 91.8233 334.759 93.1223 335.234C91.9822 331.525 89.6927 327.011 88.7396 325.196C90.9356 328.207 100.196 334.703 102.813 335.825C106.63 337.463 116.98 341.744 132.445 340.888L121.694 336.527C130.665 334.615 154.724 331.376 155.317 331.18C149.075 328.379 139.501 322.096 139.206 321.896C141.398 322.725 144.211 323.539 147.201 324.26C156.205 326.429 165.648 325.936 174.413 322.948C178.174 321.664 182.141 320.677 188.033 320.468C194.832 320.235 202.593 319.807 206.863 314.534C208.858 312.063 209.727 308.903 210.512 305.836C211.017 303.859 213.928 282.205 213.928 282.205C214.021 283.285 214.367 284.992 214.862 287.054C215.442 284.313 215.984 281.567 216.502 278.817C217.577 273.093 218.418 266.727 215.246 261.84C212.152 257.07 205.653 254.469 204.504 248.903C204.083 246.865 204.494 244.757 204.943 242.723C206.774 234.402 209.265 226.23 212.381 218.3C213.414 215.671 214.549 213.009 216.446 210.91C218.834 208.272 222.184 206.768 225.506 205.414C224.525 206.831 223.495 208.504 222.553 210.394C221.75 212.006 223.921 213.44 225.12 212.093C228.668 208.105 233.414 203.257 237.722 200.413C239.861 199.001 246.317 197.103 248.882 197.205C252.905 197.359 256.466 200.23 258.307 203.79C260.152 207.355 260.507 211.511 260.292 215.508C259.778 225.258 256.012 234.812 249.733 242.304C249.027 243.146 248.275 243.979 247.588 244.85C247.588 244.854 247.583 244.859 247.579 244.864C243.135 249.513 237.57 253.775 236.739 254.362C235.575 255.181 236.332 255.516 236.631 255.465C237.255 255.356 240.56 253.532 244.115 250.448C245.277 249.44 247.136 249.887 247.611 251.346C247.647 251.458 247.68 251.574 247.71 251.695C248.122 253.416 247.985 255.975 248.29 258.193C248.644 260.76 248.011 263.367 246.614 265.553C246.056 266.426 245.635 267.085 245.635 267.085C245.635 267.085 248.364 266.517 250.611 264.456C250.639 264.432 250.667 264.404 250.695 264.377C250.7 264.488 250.695 264.6 250.691 264.716C250.644 266.271 250.466 267.997 250.022 269.64C248.784 274.256 245.999 276.793 245.827 276.956C246.06 276.904 249.812 276.039 252.05 272.911C252.242 274.019 252.485 275.066 252.845 275.992C253.298 277.146 254.994 276.96 255.195 275.736C257.251 263.05 260.11 256.451 263.937 250.257L270.394 234.402C270.347 234.691 269.805 237.999 268.969 242.718C271.231 239.405 273.744 235.659 276.52 230.805C282.968 219.548 289.275 208.141 293.766 195.977C298.261 183.807 300.798 170.791 299.774 157.867ZM156.448 115.444C155.985 115.556 155.518 115.277 155.406 114.816C155.406 114.807 155.401 114.793 155.401 114.784C154.051 108.32 153.214 101.748 152.985 95.1589C152.756 88.5739 153.027 77.2747 154.069 70.7828C154.088 70.6804 154.196 70.5455 154.303 70.5641C154.406 70.5827 154.471 70.7176 154.457 70.82C153.64 77.3166 153.588 88.5925 154.037 95.1077C154.485 101.618 155.532 108.078 157.078 114.407C157.195 114.867 156.91 115.333 156.448 115.444ZM194.86 119.712C194.435 120.019 193.846 119.926 193.528 119.512C192.491 118.153 191.482 116.757 190.636 115.267C190.183 114.542 189.809 113.769 189.398 113.02C189.033 112.243 188.645 111.484 188.323 110.688C187.65 109.12 187.071 107.514 186.618 105.867C186.347 104.922 186.108 103.968 185.926 103.005C185.861 102.661 186.347 102.507 186.491 102.828C187.58 105.243 188.715 107.598 189.94 109.902C190.706 111.363 191.514 112.801 192.374 114.202C193.215 115.612 194.135 116.966 195.075 118.311L195.093 118.339C195.402 118.781 195.299 119.4 194.86 119.712ZM202.751 127.013C202.476 126.892 202.2 126.762 201.934 126.623C201.518 126.408 201.097 126.19 200.7 125.938C200.298 125.696 199.901 125.445 199.509 125.18C199.121 124.905 198.742 124.626 198.369 124.338C198.088 124.123 198.037 123.723 198.247 123.439C198.457 123.16 198.85 123.104 199.13 123.318C199.158 123.337 199.186 123.365 199.21 123.388C199.518 123.723 199.836 124.054 200.163 124.375C200.481 124.701 200.808 125.026 201.144 125.338C201.481 125.65 201.812 125.976 202.158 126.283C202.158 126.283 202.621 126.692 202.779 126.827C202.901 126.934 202.901 127.083 202.751 127.013ZM128.717 216.495C127.773 215.275 126.918 213.972 126.198 212.6C125.815 211.92 125.516 211.203 125.189 210.496C124.909 209.77 124.61 209.053 124.381 208.314C123.414 205.349 123.002 202.217 123.129 199.136C123.278 196.065 123.886 192.984 125.264 190.262C125.04 191.765 124.909 193.245 124.867 194.715C124.801 196.191 124.857 197.657 124.96 199.108C125.175 202.012 125.708 204.86 126.605 207.597C127.039 208.97 127.567 210.31 128.184 211.618C128.469 212.283 128.824 212.911 129.147 213.563C129.31 213.893 129.502 214.196 129.679 214.512C129.857 214.829 130.03 215.154 130.231 215.457C131.74 217.956 133.539 220.311 135.459 222.661C132.885 221.041 130.623 218.919 128.717 216.495ZM87.9546 302.109C87.5901 306.013 87.6555 309.21 87.8611 313.799C87.8658 313.869 87.8658 313.971 87.7957 313.962C87.7443 313.952 87.7349 313.897 87.7256 313.827C87.2583 309.932 87.1182 305.99 87.3144 302.062C87.3238 301.885 87.4733 301.75 87.6508 301.76C87.8284 301.764 87.9639 301.918 87.9546 302.095L87.9546 302.109ZM114.798 282.582C114.055 286.263 113.503 289.995 113.153 293.751C113.148 293.769 113.116 293.769 113.116 293.746C113.139 289.972 113.368 286.193 113.788 282.424C113.816 282.144 114.069 281.944 114.349 281.972C114.634 282.005 114.835 282.256 114.802 282.535C114.802 282.549 114.798 282.568 114.798 282.582ZM125.189 306.437C125.161 306.446 125.138 306.409 125.124 306.386C123.928 303.966 123.161 301.341 122.61 298.693C122.577 298.535 122.68 298.376 122.844 298.344C123.002 298.311 123.161 298.414 123.194 298.572C123.199 298.581 123.199 298.586 123.199 298.595C123.572 301.243 124.161 303.887 125.203 306.367C125.212 306.386 125.212 306.427 125.189 306.437ZM144.496 307.395C144.117 307.642 143.613 307.54 143.365 307.163C143.36 307.163 143.36 307.158 143.356 307.158C142.776 306.246 142.22 305.32 141.767 304.347C141.524 303.868 141.309 303.375 141.099 302.881C140.898 302.383 140.711 301.881 140.538 301.373C140.183 300.368 139.931 299.321 139.72 298.279C139.59 297.557 139.487 296.543 139.435 295.845C139.417 295.528 139.566 295.626 139.622 295.775C140.005 296.845 140.968 299.433 141.669 300.922C141.888 301.387 142.122 301.848 142.36 302.3C142.599 302.756 142.832 303.212 143.094 303.654C143.594 304.543 144.155 305.399 144.715 306.251L144.729 306.269C144.977 306.646 144.869 307.149 144.496 307.395ZM154.808 316.107C154.303 315.949 153.803 315.758 153.312 315.558C152.714 315.302 152.121 315.027 151.546 314.716C150.976 314.399 150.406 314.073 149.86 313.71C149.318 313.343 148.785 312.957 148.266 312.552C147.967 312.319 147.911 311.886 148.149 311.588C148.383 311.286 148.818 311.235 149.117 311.467C149.135 311.486 149.159 311.5 149.177 311.519C149.621 311.956 150.084 312.379 150.565 312.784C151.042 313.194 151.523 313.603 152.028 313.985C152.528 314.367 153.032 314.753 153.56 315.116C153.976 315.418 154.406 315.707 154.836 316C154.938 316.07 154.92 316.144 154.808 316.107ZM205.106 288.157C205.111 288.143 205.116 288.124 205.12 288.11L205.125 288.106C205.732 286.119 206.27 284.108 206.765 282.079C207.008 281.065 207.246 280.046 207.457 279.022C207.639 278.17 207.821 277.309 207.985 276.448C208.017 276.276 208.078 276.29 208.078 276.467C208.064 277.346 208.017 278.221 207.957 279.096C207.868 280.143 207.765 281.195 207.62 282.237C207.471 283.28 207.316 284.327 207.111 285.365C206.915 286.403 206.686 287.436 206.443 288.464C206.359 288.832 205.989 289.06 205.62 288.976C205.251 288.892 205.022 288.525 205.106 288.157ZM204.279 295.319L203.667 296.804C203.448 297.292 203.237 297.785 203.008 298.274L202.284 299.712L201.513 301.127C200.453 302.998 199.191 304.766 197.785 306.399C196.35 308.019 194.738 309.489 192.93 310.676C191.318 311.742 189.561 312.589 187.725 313.119C187.51 313.18 187.487 313.101 187.683 313.003C189.388 312.165 190.972 311.156 192.411 309.973C194.014 308.657 195.453 307.158 196.719 305.525C198.009 303.91 199.102 302.151 200.116 300.345L200.845 298.972L201.523 297.576L202.177 296.161L202.784 294.728L202.794 294.705C202.966 294.295 203.438 294.109 203.849 294.281C204.251 294.453 204.443 294.914 204.279 295.319ZM236.743 177.706C236.052 177.753 228.749 177.152 225.791 176.985C222.824 176.817 219.848 176.678 216.872 176.668C216.638 176.668 216.446 176.478 216.446 176.24C216.446 176.008 216.638 175.817 216.876 175.817H216.89C217.792 175.845 218.694 175.896 219.591 175.947C222.661 176.133 225.726 176.412 228.786 176.72C230.249 176.868 236.477 177.497 236.809 177.618C236.837 177.627 236.907 177.72 236.743 177.706ZM255.059 171.103C246.733 169.632 238.201 168.766 229.665 168.152C229.277 168.124 228.982 167.91 229.01 167.677C229.039 167.445 229.394 167.366 229.786 167.394C229.791 167.398 247.139 169.153 255.069 170.94C255.209 170.972 255.382 171 255.344 171.084C255.302 171.168 255.199 171.126 255.059 171.103Z" fill="#333638"/>
</g>
<defs>
<clipPath id="clip0_0_1">
<rect width="224" height="307" fill="white" transform="translate(76 34)"/>
</clipPath>
</defs>
</svg>
